<svg xmlns="http://www.w3.org/2000/svg" xmlns:xlink="http://www.w3.org/1999/xlink" width="500" zoomAndPan="magnify" viewBox="0 0 375 374.999991" height="500" preserveAspectRatio="xMidYMid meet" version="1.0"><defs><g/><clipPath id="b5c860c3c2"><path d="M 216 141 L 299 141 L 299 218 L 216 218 Z M 216 141 " clip-rule="nonzero"/></clipPath><clipPath id="7b79dbda5e"><path d="M 215.992188 179.191406 L 274.972656 138.550781 L 303.054688 179.300781 L 244.074219 219.941406 Z M 215.992188 179.191406 " clip-rule="nonzero"/></clipPath><clipPath id="864f58b43d"><path d="M 215.992188 179.191406 L 274.972656 138.550781 L 303.054688 179.300781 L 244.074219 219.941406 Z M 215.992188 179.191406 " clip-rule="nonzero"/></clipPath><clipPath id="5e5c5d03d7"><path d="M 169 221 L 191 221 L 191 231 L 169 231 Z M 169 221 " clip-rule="nonzero"/></clipPath><clipPath id="f2f7e8b00c"><path d="M 133.78125 237.394531 L 174.019531 208.582031 L 202.832031 248.820312 L 162.59375 277.632812 Z M 133.78125 237.394531 " clip-rule="nonzero"/></clipPath><clipPath id="4a0d53f6c4"><path d="M 133.78125 237.394531 L 174.019531 208.582031 L 202.832031 248.820312 L 162.59375 277.632812 Z M 133.78125 237.394531 " clip-rule="nonzero"/></clipPath><clipPath id="d6f45d4bb6"><path d="M 153 227 L 181 227 L 181 254 L 153 254 Z M 153 227 " clip-rule="nonzero"/></clipPath><clipPath id="bdd16c47d0"><path d="M 133.78125 237.394531 L 174.019531 208.582031 L 202.832031 248.820312 L 162.59375 277.632812 Z M 133.78125 237.394531 " clip-rule="nonzero"/></clipPath><clipPath id="febe298cdb"><path d="M 133.78125 237.394531 L 174.019531 208.582031 L 202.832031 248.820312 L 162.59375 277.632812 Z M 133.78125 237.394531 " clip-rule="nonzero"/></clipPath><clipPath id="afa949d652"><path d="M 164 242 L 195 242 L 195 272 L 164 272 Z M 164 242 " clip-rule="nonzero"/></clipPath><clipPath id="d996ceaf4f"><path d="M 133.78125 237.394531 L 174.019531 208.582031 L 202.832031 248.820312 L 162.59375 277.632812 Z M 133.78125 237.394531 " clip-rule="nonzero"/></clipPath><clipPath id="27feece413"><path d="M 133.78125 237.394531 L 174.019531 208.582031 L 202.832031 248.820312 L 162.59375 277.632812 Z M 133.78125 237.394531 " clip-rule="nonzero"/></clipPath><clipPath id="4e38b0484c"><path d="M 144 237 L 154 237 L 154 260 L 144 260 Z M 144 237 " clip-rule="nonzero"/></clipPath><clipPath id="e9a556eea9"><path d="M 133.78125 237.394531 L 174.019531 208.582031 L 202.832031 248.820312 L 162.59375 277.632812 Z M 133.78125 237.394531 " clip-rule="nonzero"/></clipPath><clipPath id="6ab0d718db"><path d="M 133.78125 237.394531 L 174.019531 208.582031 L 202.832031 248.820312 L 162.59375 277.632812 Z M 133.78125 237.394531 " clip-rule="nonzero"/></clipPath><clipPath id="e96e7391e5"><path d="M 150 220 L 170 220 L 170 240 L 150 240 Z M 150 220 " clip-rule="nonzero"/></clipPath><clipPath id="4398004001"><path d="M 133.78125 237.394531 L 174.019531 208.582031 L 202.832031 248.820312 L 162.59375 277.632812 Z M 133.78125 237.394531 " clip-rule="nonzero"/></clipPath><clipPath id="f6d9be3071"><path d="M 133.78125 237.394531 L 174.019531 208.582031 L 202.832031 248.820312 L 162.59375 277.632812 Z M 133.78125 237.394531 " clip-rule="nonzero"/></clipPath><clipPath id="7e6b161a12"><path d="M 188 238 L 199 238 L 199 248 L 188 248 Z M 188 238 " clip-rule="nonzero"/></clipPath><clipPath id="cdfcb31274"><path d="M 133.78125 237.394531 L 174.019531 208.582031 L 202.832031 248.820312 L 162.59375 277.632812 Z M 133.78125 237.394531 " clip-rule="nonzero"/></clipPath><clipPath id="a87e679041"><path d="M 133.78125 237.394531 L 174.019531 208.582031 L 202.832031 248.820312 L 162.59375 277.632812 Z M 133.78125 237.394531 " clip-rule="nonzero"/></clipPath><clipPath id="c6fef24409"><path d="M 155 262 L 165 262 L 165 272 L 155 272 Z M 155 262 " clip-rule="nonzero"/></clipPath><clipPath id="b621fcc353"><path d="M 133.78125 237.394531 L 174.019531 208.582031 L 202.832031 248.820312 L 162.59375 277.632812 Z M 133.78125 237.394531 " clip-rule="nonzero"/></clipPath><clipPath id="3bde38bb19"><path d="M 133.78125 237.394531 L 174.019531 208.582031 L 202.832031 248.820312 L 162.59375 277.632812 Z M 133.78125 237.394531 " clip-rule="nonzero"/></clipPath><clipPath id="e943440e17"><path d="M 111.101562 255.46875 L 177.519531 255.46875 L 177.519531 321.886719 L 111.101562 321.886719 Z M 111.101562 255.46875 " clip-rule="nonzero"/></clipPath><clipPath id="9dec3f07f1"><path d="M 224.03125 50.9375 L 290.449219 50.9375 L 290.449219 117.355469 L 224.03125 117.355469 Z M 224.03125 50.9375 " clip-rule="nonzero"/></clipPath></defs><g fill="#435334" fill-opacity="1"><g transform="translate(0.0000045, 354.950075)"><g><path d="M 20.109375 -0.484375 C 16.835938 -0.484375 14.300781 -1.132812 12.5 -2.4375 C 10.707031 -3.75 9.8125 -5.390625 9.8125 -7.359375 C 9.8125 -9.316406 10.875 -10.945312 13 -12.25 C 15.125 -13.5625 17.820312 -14.054688 21.09375 -13.734375 C 28.9375 -13.078125 34.65625 -12.75 38.25 -12.75 C 48.0625 -12.75 55.910156 -14.300781 61.796875 -17.40625 C 67.679688 -20.507812 71.601562 -25.820312 73.5625 -33.34375 C 76.832031 -45.113281 78.46875 -89.742188 78.46875 -167.234375 C 78.46875 -244.710938 76.832031 -289.335938 73.5625 -301.109375 C 71.601562 -308.628906 67.679688 -313.941406 61.796875 -317.046875 C 55.910156 -320.148438 48.0625 -321.703125 38.25 -321.703125 C 34.65625 -321.703125 28.9375 -321.375 21.09375 -320.71875 L 19.125 -320.71875 C 16.1875 -320.71875 13.898438 -321.375 12.265625 -322.6875 C 10.628906 -324 9.8125 -325.632812 9.8125 -327.59375 C 9.8125 -329.226562 10.707031 -330.695312 12.5 -332 C 14.300781 -333.3125 16.835938 -333.96875 20.109375 -333.96875 L 87.78125 -333.96875 C 92.351562 -333.96875 96.519531 -333.394531 100.28125 -332.25 C 104.039062 -331.101562 106.578125 -329.550781 107.890625 -327.59375 C 142.210938 -272.664062 172.78125 -226.484375 199.59375 -189.046875 C 226.40625 -151.617188 257.460938 -112.144531 292.765625 -70.625 C 294.398438 -68.332031 296.035156 -67.1875 297.671875 -67.1875 C 300.285156 -67.1875 301.59375 -69.3125 301.59375 -73.5625 L 302.09375 -293.75 C 302.09375 -303.882812 298.25 -311.078125 290.5625 -315.328125 C 282.882812 -319.578125 273.488281 -321.703125 262.375 -321.703125 C 258.445312 -321.703125 253.539062 -321.375 247.65625 -320.71875 L 246.1875 -320.71875 C 243.570312 -320.71875 241.609375 -321.375 240.296875 -322.6875 C 238.992188 -324 238.34375 -325.632812 238.34375 -327.59375 C 238.34375 -329.226562 239.078125 -330.695312 240.546875 -332 C 242.015625 -333.3125 244.054688 -333.96875 246.671875 -333.96875 L 363.390625 -333.96875 C 366.003906 -333.96875 368.046875 -333.3125 369.515625 -332 C 370.992188 -330.695312 371.734375 -329.0625 371.734375 -327.09375 C 371.734375 -325.132812 370.914062 -323.5 369.28125 -322.1875 C 367.644531 -320.882812 365.351562 -320.394531 362.40625 -320.71875 C 360.445312 -321.050781 357.34375 -321.21875 353.09375 -321.21875 C 343.9375 -321.21875 336.414062 -318.925781 330.53125 -314.34375 C 324.644531 -309.769531 321.703125 -302.90625 321.703125 -293.75 L 321.703125 -21.578125 C 321.703125 -14.710938 320.3125 -9.5625 317.53125 -6.125 C 314.757812 -2.695312 311.25 -0.984375 307 -0.984375 C 302.75 -0.984375 299.316406 -2.78125 296.703125 -6.375 C 268.578125 -43.644531 229.179688 -97.585938 178.515625 -168.203125 C 134.703125 -229.015625 111.320312 -261.382812 108.375 -265.3125 C 107.070312 -267.601562 105.4375 -268.75 103.46875 -268.75 C 100.851562 -268.75 99.546875 -266.785156 99.546875 -262.859375 C 98.242188 -237.679688 97.59375 -202.535156 97.59375 -157.421875 C 97.59375 -127.015625 98 -100.203125 98.8125 -76.984375 C 99.632812 -53.773438 100.695312 -39.226562 102 -33.34375 C 103.96875 -25.820312 107.894531 -20.507812 113.78125 -17.40625 C 119.664062 -14.300781 127.507812 -12.75 137.3125 -12.75 C 140.90625 -12.75 146.628906 -13.078125 154.484375 -13.734375 L 156.4375 -13.734375 C 159.382812 -13.734375 161.671875 -13.078125 163.296875 -11.765625 C 164.929688 -10.460938 165.75 -8.828125 165.75 -6.859375 C 165.75 -5.222656 164.847656 -3.75 163.046875 -2.4375 C 161.253906 -1.132812 158.722656 -0.484375 155.453125 -0.484375 Z M 20.109375 -0.484375 "/></g></g></g><g clip-path="url(#b5c860c3c2)"><g clip-path="url(#7b79dbda5e)"><g clip-path="url(#864f58b43d)"><path fill="#435334" d="M 269.757812 142.140625 C 267.019531 144.03125 266.941406 148.515625 269.585938 152.351562 C 271.90625 155.71875 275.4375 157.304688 278.121094 156.367188 L 296.398438 182.890625 C 296.769531 183.429688 297.507812 183.566406 298.046875 183.195312 C 298.585938 182.820312 298.722656 182.082031 298.351562 181.542969 L 280.074219 155.019531 C 281.90625 152.847656 281.679688 148.984375 279.359375 145.617188 C 276.71875 141.78125 272.5 140.253906 269.757812 142.140625 Z M 277.839844 153.871094 C 276.253906 154.964844 273.367188 153.652344 271.542969 151.003906 C 269.714844 148.355469 269.515625 145.191406 271.105469 144.097656 C 272.695312 143 275.582031 144.3125 277.40625 146.964844 C 279.230469 149.613281 279.429688 152.777344 277.839844 153.871094 Z M 245.324219 158.980469 C 234.003906 166.78125 231.140625 182.332031 238.941406 193.652344 C 246.742188 204.96875 262.292969 207.832031 273.613281 200.03125 C 284.929688 192.234375 287.792969 176.679688 279.992188 165.363281 C 272.195312 154.042969 256.640625 151.179688 245.324219 158.980469 Z M 272.265625 198.078125 C 262.023438 205.132812 247.953125 202.542969 240.894531 192.304688 C 233.839844 182.0625 236.429688 167.992188 246.671875 160.933594 C 256.910156 153.878906 270.980469 156.46875 278.039062 166.710938 C 285.09375 176.949219 282.503906 191.019531 272.265625 198.078125 Z M 250.710938 166.800781 C 243.707031 171.628906 241.933594 181.257812 246.761719 188.261719 C 247.132812 188.800781 246.996094 189.542969 246.457031 189.914062 C 245.917969 190.285156 245.179688 190.148438 244.804688 189.609375 C 239.234375 181.523438 241.28125 170.414062 249.363281 164.84375 C 249.90625 164.472656 250.644531 164.609375 251.015625 165.148438 C 251.386719 165.6875 251.25 166.429688 250.710938 166.800781 Z M 272.476562 169.097656 C 273.019531 168.726562 273.757812 168.863281 274.128906 169.402344 C 279.699219 177.488281 277.65625 188.597656 269.570312 194.167969 C 269.03125 194.539062 268.292969 194.402344 267.917969 193.863281 C 267.546875 193.324219 267.683594 192.585938 268.222656 192.214844 C 275.230469 187.386719 277.003906 177.757812 272.175781 170.75 C 271.800781 170.210938 271.9375 169.472656 272.476562 169.097656 Z M 263.203125 187.023438 C 263.578125 187.5625 264.316406 187.699219 264.855469 187.324219 C 265.394531 186.953125 265.53125 186.214844 265.160156 185.675781 L 263.074219 182.644531 C 266.464844 179.628906 268.078125 176.550781 267.867188 173.496094 C 267.558594 168.984375 263.371094 166.371094 263.191406 166.265625 C 262.710938 165.96875 262.085938 166.054688 261.703125 166.46875 C 257.496094 170.992188 257.414062 175.3125 258.082031 178.136719 C 258.113281 178.265625 258.144531 178.390625 258.175781 178.511719 C 257.664062 178.328125 257.113281 178.191406 256.519531 178.117188 C 253.96875 177.8125 251.386719 178.808594 248.835938 181.078125 C 248.4375 181.433594 248.324219 182.011719 248.566406 182.492188 C 248.632812 182.625 250.253906 185.8125 253.707031 186.503906 C 255.859375 186.9375 258.167969 186.308594 260.59375 184.636719 C 260.808594 184.492188 261.023438 184.332031 261.238281 184.167969 Z M 262.746094 168.882812 C 263.746094 169.726562 265.351562 171.417969 265.5 173.671875 C 265.648438 175.90625 264.367188 178.265625 261.6875 180.699219 C 260.472656 178.761719 258.476562 174.125 262.746094 168.882812 Z M 254.195312 184.183594 C 252.753906 183.902344 251.753906 182.910156 251.199219 182.199219 C 252.933594 180.867188 254.617188 180.289062 256.214844 180.472656 C 257.816406 180.660156 259.054688 181.589844 259.785156 182.296875 C 257.710938 183.867188 255.832031 184.5 254.195312 184.183594 Z M 231.835938 181.25 L 230.488281 179.292969 L 226.449219 173.429688 C 226.078125 172.890625 225.335938 172.753906 224.796875 173.125 C 224.257812 173.496094 224.121094 174.234375 224.492188 174.777344 L 227.859375 179.664062 L 225.90625 181.011719 L 222.539062 176.121094 C 222.167969 175.582031 221.425781 175.445312 220.886719 175.820312 C 220.347656 176.191406 220.210938 176.929688 220.582031 177.46875 L 223.953125 182.355469 L 221.996094 183.703125 L 218.628906 178.816406 C 218.257812 178.277344 217.515625 178.140625 216.976562 178.511719 C 216.4375 178.886719 216.300781 179.625 216.675781 180.164062 L 220.714844 186.027344 L 222.0625 187.984375 C 223.6875 190.34375 226.730469 191.160156 229.273438 190.078125 L 247.523438 216.566406 C 247.898438 217.105469 248.636719 217.242188 249.175781 216.871094 C 249.714844 216.5 249.851562 215.761719 249.480469 215.21875 L 231.226562 188.730469 C 233.140625 186.742188 233.460938 183.609375 231.835938 181.25 Z M 229.882812 182.59375 C 230.996094 184.210938 230.585938 186.433594 228.96875 187.546875 C 227.351562 188.664062 225.132812 188.253906 224.015625 186.636719 L 223.34375 185.660156 L 229.207031 181.617188 Z M 229.882812 182.59375 " fill-opacity="1" fill-rule="nonzero"/></g></g></g><g fill="#435334" fill-opacity="1"><g transform="translate(216.722107, 162.238789)"><g><path d="M 11.65625 -8.125 C 11.257812 -7.851562 10.894531 -7.722656 10.5625 -7.734375 C 10.238281 -7.742188 9.992188 -7.867188 9.828125 -8.109375 C 9.660156 -8.347656 9.648438 -8.632812 9.796875 -8.96875 C 9.953125 -9.300781 10.25 -9.59375 10.6875 -9.84375 C 11.695312 -10.425781 12.421875 -10.867188 12.859375 -11.171875 C 14.054688 -11.992188 14.882812 -12.84375 15.34375 -13.71875 C 15.800781 -14.59375 15.832031 -15.570312 15.4375 -16.65625 C 14.8125 -18.34375 11.226562 -23.9375 4.6875 -33.4375 L 0.40625 -39.78125 C -0.476562 -41.125 -1.773438 -43.035156 -3.484375 -45.515625 C -5.078125 -47.835938 -6.390625 -49.617188 -7.421875 -50.859375 C -8.148438 -51.660156 -9.007812 -51.71875 -10 -51.03125 L -12.46875 -49.328125 C -14.875 -47.679688 -16.507812 -46.453125 -17.375 -45.640625 C -18.238281 -44.835938 -18.90625 -43.832031 -19.375 -42.625 C -20.632812 -39.570312 -19.898438 -36.0625 -17.171875 -32.09375 C -16.835938 -31.613281 -16.691406 -31.148438 -16.734375 -30.703125 C -16.785156 -30.265625 -16.972656 -29.9375 -17.296875 -29.71875 C -17.578125 -29.53125 -17.894531 -29.503906 -18.25 -29.640625 C -18.613281 -29.773438 -18.941406 -30.0625 -19.234375 -30.5 C -20.265625 -31.976562 -22.117188 -35.128906 -24.796875 -39.953125 C -25.628906 -41.503906 -25.582031 -42.601562 -24.65625 -43.25 L -7.296875 -55.296875 L 10.171875 -67.25 C 11.097656 -67.882812 12.132812 -67.53125 13.28125 -66.1875 C 16.84375 -61.976562 19.140625 -59.132812 20.171875 -57.65625 C 20.460938 -57.21875 20.609375 -56.804688 20.609375 -56.421875 C 20.609375 -56.035156 20.46875 -55.742188 20.1875 -55.546875 C 19.875 -55.328125 19.5 -55.269531 19.0625 -55.375 C 18.625 -55.488281 18.238281 -55.785156 17.90625 -56.265625 C 15.175781 -60.234375 12.160156 -62.171875 8.859375 -62.078125 C 7.566406 -62.078125 6.421875 -61.835938 5.421875 -61.359375 C 4.429688 -60.878906 2.769531 -59.835938 0.4375 -58.234375 L -2.015625 -56.546875 C -3.054688 -55.828125 -3.304688 -54.976562 -2.765625 -54 C -1.148438 -51.15625 2.734375 -45.269531 8.890625 -36.34375 C 15.429688 -26.84375 19.378906 -21.492188 20.734375 -20.296875 C 21.609375 -19.546875 22.535156 -19.226562 23.515625 -19.34375 C 24.492188 -19.46875 25.585938 -19.941406 26.796875 -20.765625 C 27.234375 -21.066406 27.90625 -21.59375 28.8125 -22.34375 L 29.046875 -22.5 C 29.410156 -22.75 29.75 -22.863281 30.0625 -22.84375 C 30.375 -22.820312 30.613281 -22.691406 30.78125 -22.453125 C 30.914062 -22.253906 30.925781 -21.992188 30.8125 -21.671875 C 30.695312 -21.359375 30.441406 -21.066406 30.046875 -20.796875 L 20.84375 -14.453125 Z M 11.65625 -8.125 "/></g></g></g><g clip-path="url(#5e5c5d03d7)"><g clip-path="url(#f2f7e8b00c)"><g clip-path="url(#4a0d53f6c4)"><path fill="#435334" d="M 170.898438 221.902344 C 170.207031 222.207031 169.679688 222.542969 169.324219 222.808594 L 170.886719 224.988281 C 171.277344 225.398438 174.710938 228.96875 177.753906 230.355469 L 190.367188 230.785156 L 184.820312 223.042969 C 184.257812 222.808594 182.191406 222.058594 177.289062 221.25 C 174.925781 220.859375 172.777344 221.078125 170.898438 221.902344 Z M 170.898438 221.902344 " fill-opacity="1" fill-rule="nonzero"/></g></g></g><g clip-path="url(#d6f45d4bb6)"><g clip-path="url(#bdd16c47d0)"><g clip-path="url(#febe298cdb)"><path fill="#435334" d="M 171.082031 227.683594 C 170.832031 230.0625 169.785156 232.339844 167.988281 234.363281 C 166.429688 236.117188 164.808594 237.132812 164.417969 237.363281 C 164.074219 237.65625 162.589844 238.867188 160.429688 239.777344 C 157.933594 240.824219 155.441406 241.085938 153.109375 240.554688 C 153.949219 242.421875 155.078125 245.304688 155.277344 247.75 C 155.464844 250.097656 156.582031 251.960938 158.265625 252.742188 C 160.042969 253.566406 162.308594 253.101562 164.636719 251.433594 L 177.667969 242.105469 C 179.996094 240.433594 181.167969 238.441406 180.957031 236.488281 C 180.761719 234.648438 179.355469 232.988281 177.195312 232.054688 C 174.945312 231.078125 172.578125 229.082031 171.082031 227.683594 Z M 171.082031 227.683594 " fill-opacity="1" fill-rule="nonzero"/></g></g></g><g clip-path="url(#afa949d652)"><g clip-path="url(#d996ceaf4f)"><g clip-path="url(#27feece413)"><path fill="#435334" d="M 179.667969 242.796875 C 179.367188 243.054688 179.046875 243.308594 178.703125 243.550781 L 165.675781 252.882812 C 165.332031 253.125 164.992188 253.347656 164.648438 253.550781 C 165.800781 255.644531 167.296875 258.578125 168.59375 261.824219 C 170.09375 265.570312 171.015625 268.925781 171.335938 271.824219 L 194.8125 255.011719 C 192.167969 253.769531 189.285156 251.816406 186.214844 249.183594 C 183.570312 246.914062 181.277344 244.558594 179.667969 242.796875 Z M 178.410156 256.902344 C 178.011719 257.1875 177.453125 257.097656 177.167969 256.695312 C 176.882812 256.296875 176.972656 255.742188 177.371094 255.453125 C 177.773438 255.167969 178.328125 255.261719 178.613281 255.660156 C 178.902344 256.058594 178.808594 256.617188 178.410156 256.902344 Z M 178.410156 256.902344 " fill-opacity="1" fill-rule="nonzero"/></g></g></g><g clip-path="url(#4e38b0484c)"><g clip-path="url(#e9a556eea9)"><g clip-path="url(#6ab0d718db)"><path fill="#435334" d="M 149.058594 237.320312 C 148.695312 237.570312 148.207031 237.960938 147.695312 238.519531 C 146.308594 240.03125 145.40625 241.996094 145.015625 244.359375 C 144.207031 249.25 144.25 251.449219 144.289062 252.066406 L 149.832031 259.8125 L 153.488281 247.730469 C 153.152344 244.40625 150.882812 240.003906 150.617188 239.5 Z M 149.058594 237.320312 " fill-opacity="1" fill-rule="nonzero"/></g></g></g><g clip-path="url(#e96e7391e5)"><g clip-path="url(#4398004001)"><g clip-path="url(#f6d9be3071)"><path fill="#435334" d="M 159.6875 238.15625 C 161.851562 237.257812 163.289062 235.984375 163.300781 235.972656 C 163.351562 235.929688 163.40625 235.890625 163.460938 235.859375 C 163.476562 235.851562 165.144531 234.898438 166.691406 233.140625 C 168.648438 230.917969 169.53125 228.472656 169.328125 225.871094 L 167.8125 223.753906 C 163.546875 225.257812 159.277344 221.675781 157.769531 220.21875 L 150.328125 225.546875 C 151.222656 227.441406 153.238281 232.640625 150.441406 236.191406 L 151.957031 238.308594 C 154.351562 239.34375 156.953125 239.292969 159.6875 238.15625 Z M 159.6875 238.15625 " fill-opacity="1" fill-rule="nonzero"/></g></g></g><g clip-path="url(#7e6b161a12)"><g clip-path="url(#cdfcb31274)"><g clip-path="url(#a87e679041)"><path fill="#435334" d="M 196.085938 238.769531 L 191.316406 242.183594 L 191.789062 239.335938 C 191.871094 238.851562 191.542969 238.394531 191.054688 238.3125 C 190.570312 238.230469 190.113281 238.558594 190.03125 239.046875 L 189.003906 245.257812 C 188.925781 245.742188 189.253906 246.199219 189.738281 246.28125 L 195.949219 247.308594 C 196.191406 247.347656 196.425781 247.285156 196.613281 247.152344 C 196.796875 247.019531 196.933594 246.816406 196.972656 246.574219 C 197.050781 246.089844 196.722656 245.632812 196.238281 245.550781 L 193.390625 245.078125 L 198.160156 241.664062 Z M 196.085938 238.769531 " fill-opacity="1" fill-rule="nonzero"/></g></g></g><g clip-path="url(#c6fef24409)"><g clip-path="url(#b621fcc353)"><g clip-path="url(#3bde38bb19)"><path fill="#435334" d="M 163.972656 263.183594 L 157.761719 262.15625 C 157.273438 262.074219 156.816406 262.402344 156.738281 262.886719 C 156.65625 263.371094 156.984375 263.832031 157.46875 263.910156 L 160.316406 264.382812 L 155.550781 267.796875 L 157.625 270.691406 L 162.390625 267.277344 L 161.917969 270.125 C 161.839844 270.609375 162.167969 271.070312 162.652344 271.148438 C 162.894531 271.191406 163.132812 271.128906 163.316406 270.996094 C 163.5 270.863281 163.636719 270.660156 163.675781 270.417969 L 164.703125 264.207031 C 164.785156 263.722656 164.457031 263.261719 163.972656 263.183594 Z M 163.972656 263.183594 " fill-opacity="1" fill-rule="nonzero"/></g></g></g><g fill="#435334" fill-opacity="1"><g transform="translate(126.821124, 228.477926)"><g><path d="M 11.515625 -8.34375 C 11.117188 -8.0625 10.753906 -7.921875 10.421875 -7.921875 C 10.097656 -7.921875 9.847656 -8.039062 9.671875 -8.28125 C 9.503906 -8.519531 9.492188 -8.804688 9.640625 -9.140625 C 9.785156 -9.484375 10.070312 -9.785156 10.5 -10.046875 C 11.507812 -10.628906 12.234375 -11.078125 12.671875 -11.390625 C 13.847656 -12.234375 14.65625 -13.097656 15.09375 -13.984375 C 15.539062 -14.878906 15.554688 -15.863281 15.140625 -16.9375 C 14.484375 -18.613281 10.796875 -24.140625 4.078125 -33.515625 L -0.3125 -39.796875 C -1.21875 -41.117188 -2.546875 -43.003906 -4.296875 -45.453125 C -5.941406 -47.742188 -7.285156 -49.5 -8.328125 -50.71875 C -9.078125 -51.507812 -9.941406 -51.550781 -10.921875 -50.84375 L -13.359375 -49.09375 C -15.734375 -47.394531 -17.34375 -46.132812 -18.1875 -45.3125 C -19.039062 -44.5 -19.691406 -43.484375 -20.140625 -42.265625 C -21.347656 -39.191406 -20.550781 -35.695312 -17.75 -31.78125 C -17.40625 -31.3125 -17.25 -30.851562 -17.28125 -30.40625 C -17.320312 -29.957031 -17.5 -29.625 -17.8125 -29.40625 C -18.09375 -29.207031 -18.414062 -29.171875 -18.78125 -29.296875 C -19.144531 -29.421875 -19.484375 -29.703125 -19.796875 -30.140625 C -20.835938 -31.609375 -22.738281 -34.726562 -25.5 -39.5 C -26.363281 -41.039062 -26.34375 -42.140625 -25.4375 -42.796875 L -8.296875 -55.15625 L 8.953125 -67.421875 C 9.867188 -68.078125 10.914062 -67.742188 12.09375 -66.421875 C 15.726562 -62.273438 18.066406 -59.46875 19.109375 -58 C 19.421875 -57.5625 19.582031 -57.148438 19.59375 -56.765625 C 19.601562 -56.390625 19.46875 -56.101562 19.1875 -55.90625 C 18.875 -55.675781 18.5 -55.613281 18.0625 -55.71875 C 17.625 -55.832031 17.234375 -56.125 16.890625 -56.59375 C 14.085938 -60.507812 11.035156 -62.382812 7.734375 -62.21875 C 6.441406 -62.195312 5.300781 -61.9375 4.3125 -61.4375 C 3.332031 -60.945312 1.691406 -59.878906 -0.609375 -58.234375 L -3.03125 -56.5 C -4.0625 -55.757812 -4.296875 -54.90625 -3.734375 -53.9375 C -2.066406 -51.125 1.921875 -45.304688 8.234375 -36.484375 C 14.953125 -27.109375 18.992188 -21.835938 20.359375 -20.671875 C 21.253906 -19.941406 22.191406 -19.640625 23.171875 -19.765625 C 24.148438 -19.898438 25.234375 -20.390625 26.421875 -21.234375 C 26.847656 -21.546875 27.507812 -22.085938 28.40625 -22.859375 L 28.640625 -23.03125 C 28.992188 -23.28125 29.328125 -23.394531 29.640625 -23.375 C 29.953125 -23.363281 30.191406 -23.238281 30.359375 -23 C 30.503906 -22.800781 30.519531 -22.546875 30.40625 -22.234375 C 30.300781 -21.921875 30.054688 -21.625 29.671875 -21.34375 L 20.578125 -14.828125 Z M 11.515625 -8.34375 "/></g></g></g><path fill="#435334" d="M 112.769531 257.347656 L 112.769531 320.996094 L 176.421875 320.996094 Z M 112.769531 257.347656 " fill-opacity="1" fill-rule="nonzero"/><g clip-path="url(#e943440e17)"><path fill="#435334" d="M 176.421875 322.457031 L 112.769531 322.457031 C 111.726562 322.457031 111.101562 321.832031 111.101562 320.996094 L 111.101562 257.347656 C 111.101562 256.71875 111.519531 256.09375 112.144531 255.886719 C 112.5625 255.46875 113.394531 255.675781 113.8125 256.09375 L 177.464844 319.742188 C 177.878906 320.160156 178.089844 320.789062 177.878906 321.414062 C 177.464844 322.039062 177.046875 322.457031 176.421875 322.457031 Z M 114.230469 319.328125 L 172.453125 319.328125 L 114.230469 261.101562 Z M 114.230469 319.328125 " fill-opacity="1" fill-rule="nonzero"/></g><path fill="#435334" d="M 288.78125 115.480469 L 288.78125 51.828125 L 225.132812 51.828125 Z M 288.78125 115.480469 " fill-opacity="1" fill-rule="nonzero"/><g clip-path="url(#9dec3f07f1)"><path fill="#435334" d="M 225.132812 50.367188 L 288.78125 50.367188 C 289.824219 50.367188 290.449219 50.996094 290.449219 51.828125 L 290.449219 115.480469 C 290.449219 116.105469 290.03125 116.730469 289.40625 116.941406 C 288.988281 117.355469 288.15625 117.148438 287.738281 116.730469 L 224.085938 53.082031 C 223.671875 52.664062 223.460938 52.039062 223.671875 51.410156 C 224.085938 50.785156 224.503906 50.367188 225.132812 50.367188 Z M 287.320312 53.5 L 229.097656 53.5 L 287.320312 111.722656 Z M 287.320312 53.5 " fill-opacity="1" fill-rule="nonzero"/></g></svg>