<svg xmlns="http://www.w3.org/2000/svg" xmlns:xlink="http://www.w3.org/1999/xlink" width="500" zoomAndPan="magnify" viewBox="0 0 375 374.999991" height="500" preserveAspectRatio="xMidYMid meet" version="1.0"><defs><g/><clipPath id="18fe6fc0b1"><path d="M 206 173 L 254 173 L 254 218 L 206 218 Z M 206 173 " clip-rule="nonzero"/></clipPath><clipPath id="1b09f59407"><path d="M 206.257812 195.625 L 240.222656 172.21875 L 256.394531 195.6875 L 222.429688 219.09375 Z M 206.257812 195.625 " clip-rule="nonzero"/></clipPath><clipPath id="180d0f32ff"><path d="M 206.257812 195.625 L 240.222656 172.21875 L 256.394531 195.6875 L 222.429688 219.09375 Z M 206.257812 195.625 " clip-rule="nonzero"/></clipPath><clipPath id="ff31c21eb5"><path d="M 179 219 L 192 219 L 192 226 L 179 226 Z M 179 219 " clip-rule="nonzero"/></clipPath><clipPath id="b119ac921a"><path d="M 158.914062 229.144531 L 182.085938 212.550781 L 198.675781 235.722656 L 175.503906 252.316406 Z M 158.914062 229.144531 " clip-rule="nonzero"/></clipPath><clipPath id="107e1f3de6"><path d="M 158.914062 229.144531 L 182.085938 212.550781 L 198.675781 235.722656 L 175.503906 252.316406 Z M 158.914062 229.144531 " clip-rule="nonzero"/></clipPath><clipPath id="76b4aeef9f"><path d="M 169 223 L 186 223 L 186 239 L 169 239 Z M 169 223 " clip-rule="nonzero"/></clipPath><clipPath id="ca80a8e60b"><path d="M 158.914062 229.144531 L 182.085938 212.550781 L 198.675781 235.722656 L 175.503906 252.316406 Z M 158.914062 229.144531 " clip-rule="nonzero"/></clipPath><clipPath id="cfbe6de29f"><path d="M 158.914062 229.144531 L 182.085938 212.550781 L 198.675781 235.722656 L 175.503906 252.316406 Z M 158.914062 229.144531 " clip-rule="nonzero"/></clipPath><clipPath id="827705c53a"><path d="M 176 232 L 194 232 L 194 249 L 176 249 Z M 176 232 " clip-rule="nonzero"/></clipPath><clipPath id="d95f9e2902"><path d="M 158.914062 229.144531 L 182.085938 212.550781 L 198.675781 235.722656 L 175.503906 252.316406 Z M 158.914062 229.144531 " clip-rule="nonzero"/></clipPath><clipPath id="768ae2aa55"><path d="M 158.914062 229.144531 L 182.085938 212.550781 L 198.675781 235.722656 L 175.503906 252.316406 Z M 158.914062 229.144531 " clip-rule="nonzero"/></clipPath><clipPath id="166b7bbbf5"><path d="M 164 229 L 171 229 L 171 242 L 164 242 Z M 164 229 " clip-rule="nonzero"/></clipPath><clipPath id="e20b3ae6a5"><path d="M 158.914062 229.144531 L 182.085938 212.550781 L 198.675781 235.722656 L 175.503906 252.316406 Z M 158.914062 229.144531 " clip-rule="nonzero"/></clipPath><clipPath id="eba9ae2814"><path d="M 158.914062 229.144531 L 182.085938 212.550781 L 198.675781 235.722656 L 175.503906 252.316406 Z M 158.914062 229.144531 " clip-rule="nonzero"/></clipPath><clipPath id="9cada087a2"><path d="M 168 219 L 180 219 L 180 231 L 168 231 Z M 168 219 " clip-rule="nonzero"/></clipPath><clipPath id="0d9f4cf5c7"><path d="M 158.914062 229.144531 L 182.085938 212.550781 L 198.675781 235.722656 L 175.503906 252.316406 Z M 158.914062 229.144531 " clip-rule="nonzero"/></clipPath><clipPath id="c78fc0b60f"><path d="M 158.914062 229.144531 L 182.085938 212.550781 L 198.675781 235.722656 L 175.503906 252.316406 Z M 158.914062 229.144531 " clip-rule="nonzero"/></clipPath><clipPath id="833bc66062"><path d="M 190 229 L 196 229 L 196 235 L 190 235 Z M 190 229 " clip-rule="nonzero"/></clipPath><clipPath id="ccccad382f"><path d="M 158.914062 229.144531 L 182.085938 212.550781 L 198.675781 235.722656 L 175.503906 252.316406 Z M 158.914062 229.144531 " clip-rule="nonzero"/></clipPath><clipPath id="e19fdcec01"><path d="M 158.914062 229.144531 L 182.085938 212.550781 L 198.675781 235.722656 L 175.503906 252.316406 Z M 158.914062 229.144531 " clip-rule="nonzero"/></clipPath><clipPath id="9fc81128b9"><path d="M 171 243 L 177 243 L 177 249 L 171 249 Z M 171 243 " clip-rule="nonzero"/></clipPath><clipPath id="dfc7b30685"><path d="M 158.914062 229.144531 L 182.085938 212.550781 L 198.675781 235.722656 L 175.503906 252.316406 Z M 158.914062 229.144531 " clip-rule="nonzero"/></clipPath><clipPath id="83bfc20596"><path d="M 158.914062 229.144531 L 182.085938 212.550781 L 198.675781 235.722656 L 175.503906 252.316406 Z M 158.914062 229.144531 " clip-rule="nonzero"/></clipPath><clipPath id="ec2d143b1e"><path d="M 145.851562 239.554688 L 184.101562 239.554688 L 184.101562 277.804688 L 145.851562 277.804688 Z M 145.851562 239.554688 " clip-rule="nonzero"/></clipPath><clipPath id="8b81fc92ea"><path d="M 210.886719 121.765625 L 249.136719 121.765625 L 249.136719 160 L 210.886719 160 Z M 210.886719 121.765625 " clip-rule="nonzero"/></clipPath></defs><g fill="#435334" fill-opacity="1"><g transform="translate(81.869699, 296.843437)"><g><path d="M 11.578125 -0.28125 C 9.691406 -0.28125 8.226562 -0.65625 7.1875 -1.40625 C 6.15625 -2.164062 5.640625 -3.109375 5.640625 -4.234375 C 5.640625 -5.367188 6.25 -6.3125 7.46875 -7.0625 C 8.695312 -7.8125 10.253906 -8.09375 12.140625 -7.90625 C 16.660156 -7.53125 19.957031 -7.34375 22.03125 -7.34375 C 27.675781 -7.34375 32.191406 -8.234375 35.578125 -10.015625 C 38.972656 -11.804688 41.234375 -14.867188 42.359375 -19.203125 C 44.242188 -25.984375 45.1875 -51.6875 45.1875 -96.3125 C 45.1875 -140.925781 44.242188 -166.625 42.359375 -173.40625 C 41.234375 -177.738281 38.972656 -180.796875 35.578125 -182.578125 C 32.191406 -184.367188 27.675781 -185.265625 22.03125 -185.265625 C 19.957031 -185.265625 16.660156 -185.078125 12.140625 -184.703125 L 11.015625 -184.703125 C 9.316406 -184.703125 7.992188 -185.078125 7.046875 -185.828125 C 6.109375 -186.585938 5.640625 -187.53125 5.640625 -188.65625 C 5.640625 -189.59375 6.15625 -190.4375 7.1875 -191.1875 C 8.226562 -191.945312 9.691406 -192.328125 11.578125 -192.328125 L 50.546875 -192.328125 C 53.179688 -192.328125 55.582031 -192 57.75 -191.34375 C 59.914062 -190.6875 61.375 -189.789062 62.125 -188.65625 C 81.894531 -157.019531 99.5 -130.421875 114.9375 -108.859375 C 130.382812 -87.304688 148.273438 -64.578125 168.609375 -40.671875 C 169.546875 -39.347656 170.488281 -38.6875 171.4375 -38.6875 C 172.9375 -38.6875 173.6875 -39.910156 173.6875 -42.359375 L 173.96875 -169.171875 C 173.96875 -175.003906 171.753906 -179.144531 167.328125 -181.59375 C 162.910156 -184.039062 157.5 -185.265625 151.09375 -185.265625 C 148.832031 -185.265625 146.007812 -185.078125 142.625 -184.703125 L 141.78125 -184.703125 C 140.269531 -184.703125 139.132812 -185.078125 138.375 -185.828125 C 137.625 -186.585938 137.25 -187.53125 137.25 -188.65625 C 137.25 -189.59375 137.671875 -190.4375 138.515625 -191.1875 C 139.367188 -191.945312 140.550781 -192.328125 142.0625 -192.328125 L 209.28125 -192.328125 C 210.78125 -192.328125 211.953125 -191.945312 212.796875 -191.1875 C 213.648438 -190.4375 214.078125 -189.5 214.078125 -188.375 C 214.078125 -187.25 213.601562 -186.304688 212.65625 -185.546875 C 211.71875 -184.796875 210.398438 -184.515625 208.703125 -184.703125 C 207.578125 -184.890625 205.789062 -184.984375 203.34375 -184.984375 C 198.070312 -184.984375 193.738281 -183.664062 190.34375 -181.03125 C 186.957031 -178.394531 185.265625 -174.441406 185.265625 -169.171875 L 185.265625 -12.421875 C 185.265625 -8.472656 184.460938 -5.507812 182.859375 -3.53125 C 181.265625 -1.550781 179.242188 -0.5625 176.796875 -0.5625 C 174.347656 -0.5625 172.367188 -1.597656 170.859375 -3.671875 C 154.671875 -25.140625 131.984375 -56.207031 102.796875 -96.875 C 77.566406 -131.894531 64.109375 -150.535156 62.421875 -152.796875 C 61.660156 -154.109375 60.71875 -154.765625 59.59375 -154.765625 C 58.082031 -154.765625 57.328125 -153.632812 57.328125 -151.375 C 56.578125 -136.875 56.203125 -116.632812 56.203125 -90.65625 C 56.203125 -73.144531 56.4375 -57.703125 56.90625 -44.328125 C 57.375 -30.960938 57.988281 -22.585938 58.75 -19.203125 C 59.875 -14.867188 62.128906 -11.804688 65.515625 -10.015625 C 68.910156 -8.234375 73.429688 -7.34375 79.078125 -7.34375 C 81.148438 -7.34375 84.445312 -7.53125 88.96875 -7.90625 L 90.09375 -7.90625 C 91.789062 -7.90625 93.109375 -7.523438 94.046875 -6.765625 C 94.984375 -6.015625 95.453125 -5.078125 95.453125 -3.953125 C 95.453125 -3.015625 94.9375 -2.164062 93.90625 -1.40625 C 92.875 -0.65625 91.414062 -0.28125 89.53125 -0.28125 Z M 11.578125 -0.28125 "/></g></g></g><g clip-path="url(#18fe6fc0b1)"><g clip-path="url(#1b09f59407)"><g clip-path="url(#180d0f32ff)"><path fill="#435334" d="M 237.390625 174.175781 C 235.800781 175.265625 235.742188 177.84375 237.253906 180.035156 C 238.582031 181.960938 240.613281 182.859375 242.160156 182.3125 L 252.609375 197.472656 C 252.820312 197.78125 253.246094 197.855469 253.558594 197.640625 C 253.871094 197.425781 253.953125 197 253.742188 196.691406 L 243.292969 181.53125 C 244.355469 180.277344 244.238281 178.058594 242.914062 176.136719 C 241.402344 173.941406 238.976562 173.082031 237.390625 174.175781 Z M 242.007812 180.878906 C 241.089844 181.511719 239.429688 180.769531 238.386719 179.253906 C 237.34375 177.742188 237.238281 175.925781 238.160156 175.292969 C 239.078125 174.65625 240.738281 175.402344 241.78125 176.914062 C 242.824219 178.429688 242.929688 180.246094 242.007812 180.878906 Z M 223.242188 183.921875 C 216.6875 188.4375 214.984375 197.378906 219.441406 203.847656 C 223.898438 210.316406 232.859375 211.90625 239.410156 207.390625 C 245.964844 202.875 247.667969 193.9375 243.210938 187.46875 C 238.753906 180.996094 229.792969 179.40625 223.242188 183.921875 Z M 238.640625 206.273438 C 232.710938 210.359375 224.605469 208.921875 220.574219 203.066406 C 216.539062 197.214844 218.082031 189.125 224.011719 185.042969 C 229.941406 180.957031 238.046875 182.394531 242.078125 188.246094 C 246.113281 194.101562 244.570312 202.1875 238.640625 206.273438 Z M 226.320312 188.394531 C 222.265625 191.1875 221.207031 196.722656 223.96875 200.726562 C 224.179688 201.035156 224.101562 201.460938 223.789062 201.675781 C 223.476562 201.890625 223.050781 201.816406 222.835938 201.507812 C 219.652344 196.886719 220.871094 190.5 225.550781 187.277344 C 225.863281 187.0625 226.289062 187.136719 226.5 187.445312 C 226.714844 187.753906 226.632812 188.179688 226.320312 188.394531 Z M 238.863281 189.640625 C 239.175781 189.421875 239.601562 189.5 239.816406 189.808594 C 243 194.429688 241.78125 200.8125 237.101562 204.039062 C 236.789062 204.253906 236.363281 204.179688 236.152344 203.871094 C 235.9375 203.5625 236.019531 203.136719 236.332031 202.921875 C 240.386719 200.125 241.445312 194.59375 238.683594 190.585938 C 238.472656 190.277344 238.550781 189.855469 238.863281 189.640625 Z M 233.457031 199.957031 C 233.667969 200.265625 234.09375 200.34375 234.40625 200.128906 C 234.71875 199.914062 234.800781 199.488281 234.585938 199.179688 L 233.394531 197.445312 C 235.359375 195.703125 236.300781 193.933594 236.191406 192.175781 C 236.027344 189.589844 233.621094 188.105469 233.519531 188.042969 C 233.242188 187.875 232.882812 187.925781 232.660156 188.164062 C 230.21875 190.777344 230.15625 193.257812 230.53125 194.875 C 230.546875 194.949219 230.566406 195.019531 230.585938 195.089844 C 230.289062 194.988281 229.972656 194.910156 229.628906 194.871094 C 228.160156 194.703125 226.667969 195.285156 225.191406 196.59375 C 224.960938 196.800781 224.894531 197.132812 225.027344 197.40625 C 225.066406 197.484375 225.992188 199.308594 227.980469 199.695312 C 229.21875 199.933594 230.554688 199.566406 231.957031 198.597656 C 232.082031 198.515625 232.207031 198.421875 232.332031 198.328125 Z M 233.253906 189.546875 C 233.828125 190.027344 234.746094 190.992188 234.824219 192.289062 C 234.902344 193.570312 234.15625 194.929688 232.601562 196.335938 C 231.90625 195.226562 230.773438 192.570312 233.253906 189.546875 Z M 228.269531 198.359375 C 227.441406 198.203125 226.867188 197.636719 226.550781 197.230469 C 227.554688 196.460938 228.527344 196.121094 229.445312 196.222656 C 230.371094 196.324219 231.082031 196.855469 231.5 197.257812 C 230.296875 198.167969 229.214844 198.539062 228.269531 198.359375 Z M 215.386719 196.753906 L 214.617188 195.632812 L 212.304688 192.28125 C 212.09375 191.972656 211.667969 191.898438 211.355469 192.113281 C 211.042969 192.328125 210.960938 192.753906 211.175781 193.0625 L 213.101562 195.855469 L 211.96875 196.636719 L 210.042969 193.84375 C 209.828125 193.535156 209.402344 193.457031 209.089844 193.671875 C 208.777344 193.886719 208.699219 194.3125 208.910156 194.621094 L 210.835938 197.414062 L 209.703125 198.195312 L 207.777344 195.402344 C 207.566406 195.09375 207.140625 195.019531 206.828125 195.234375 C 206.515625 195.449219 206.433594 195.875 206.648438 196.183594 L 209.726562 200.652344 C 210.65625 202 212.410156 202.460938 213.878906 201.828125 L 224.3125 216.972656 C 224.523438 217.28125 224.949219 217.355469 225.261719 217.140625 C 225.574219 216.925781 225.65625 216.5 225.445312 216.191406 L 215.007812 201.050781 C 216.121094 199.902344 216.316406 198.101562 215.386719 196.753906 Z M 214.253906 197.53125 C 214.890625 198.457031 214.648438 199.734375 213.710938 200.378906 C 212.777344 201.023438 211.496094 200.796875 210.859375 199.871094 L 210.472656 199.3125 L 213.871094 196.972656 Z M 214.253906 197.53125 " fill-opacity="1" fill-rule="nonzero"/></g></g></g><g fill="#435334" fill-opacity="1"><g transform="translate(206.687196, 185.856508)"><g><path d="M 6.703125 -4.671875 C 6.472656 -4.515625 6.265625 -4.441406 6.078125 -4.453125 C 5.890625 -4.460938 5.75 -4.535156 5.65625 -4.671875 C 5.5625 -4.804688 5.554688 -4.96875 5.640625 -5.15625 C 5.734375 -5.351562 5.898438 -5.523438 6.140625 -5.671875 C 6.722656 -6.003906 7.144531 -6.257812 7.40625 -6.4375 C 8.09375 -6.90625 8.566406 -7.390625 8.828125 -7.890625 C 9.097656 -8.398438 9.117188 -8.972656 8.890625 -9.609375 C 8.523438 -10.578125 6.460938 -13.789062 2.703125 -19.25 L 0.234375 -22.90625 C -0.273438 -23.695312 -1.019531 -24.800781 -2 -26.21875 C -2.925781 -27.5625 -3.679688 -28.585938 -4.265625 -29.296875 C -4.691406 -29.765625 -5.195312 -29.796875 -5.78125 -29.390625 L -7.1875 -28.421875 C -8.570312 -27.460938 -9.507812 -26.75 -10 -26.28125 C -10.5 -25.820312 -10.882812 -25.242188 -11.15625 -24.546875 C -11.875 -22.796875 -11.445312 -20.78125 -9.875 -18.5 C -9.6875 -18.21875 -9.609375 -17.945312 -9.640625 -17.6875 C -9.671875 -17.425781 -9.773438 -17.234375 -9.953125 -17.109375 C -10.117188 -16.992188 -10.304688 -16.976562 -10.515625 -17.0625 C -10.722656 -17.144531 -10.914062 -17.316406 -11.09375 -17.578125 C -11.675781 -18.421875 -12.738281 -20.226562 -14.28125 -23 C -14.757812 -23.894531 -14.734375 -24.53125 -14.203125 -24.90625 L -4.203125 -31.859375 L 5.859375 -38.71875 C 6.390625 -39.082031 6.988281 -38.882812 7.65625 -38.125 C 9.695312 -35.6875 11.007812 -34.046875 11.59375 -33.203125 C 11.769531 -32.941406 11.859375 -32.695312 11.859375 -32.46875 C 11.859375 -32.25 11.78125 -32.085938 11.625 -31.984375 C 11.4375 -31.859375 11.21875 -31.828125 10.96875 -31.890625 C 10.71875 -31.953125 10.5 -32.125 10.3125 -32.40625 C 8.738281 -34.6875 7 -35.800781 5.09375 -35.75 C 4.351562 -35.75 3.691406 -35.609375 3.109375 -35.328125 C 2.535156 -35.054688 1.582031 -34.457031 0.25 -33.53125 L -1.171875 -32.5625 C -1.773438 -32.144531 -1.910156 -31.660156 -1.578125 -31.109375 C -0.648438 -29.453125 1.582031 -26.054688 5.125 -20.921875 C 8.882812 -15.460938 11.15625 -12.390625 11.9375 -11.703125 C 12.4375 -11.265625 12.96875 -11.078125 13.53125 -11.140625 C 14.101562 -11.210938 14.734375 -11.488281 15.421875 -11.96875 C 15.679688 -12.144531 16.066406 -12.441406 16.578125 -12.859375 L 16.71875 -12.953125 C 16.925781 -13.097656 17.117188 -13.160156 17.296875 -13.140625 C 17.472656 -13.128906 17.609375 -13.054688 17.703125 -12.921875 C 17.785156 -12.804688 17.796875 -12.660156 17.734375 -12.484375 C 17.671875 -12.304688 17.523438 -12.132812 17.296875 -11.96875 L 12 -8.328125 Z M 6.703125 -4.671875 "/></g></g></g><g clip-path="url(#ff31c21eb5)"><g clip-path="url(#b119ac921a)"><g clip-path="url(#107e1f3de6)"><path fill="#435334" d="M 180.132812 220.289062 C 179.734375 220.464844 179.433594 220.65625 179.230469 220.804688 L 180.125 222.050781 C 180.347656 222.289062 182.3125 224.328125 184.050781 225.121094 L 191.261719 225.367188 L 188.089844 220.941406 C 187.769531 220.808594 186.585938 220.378906 183.785156 219.914062 C 182.433594 219.691406 181.207031 219.816406 180.132812 220.289062 Z M 180.132812 220.289062 " fill-opacity="1" fill-rule="nonzero"/></g></g></g><g clip-path="url(#76b4aeef9f)"><g clip-path="url(#ca80a8e60b)"><g clip-path="url(#cfbe6de29f)"><path fill="#435334" d="M 180.234375 223.59375 C 180.09375 224.953125 179.496094 226.253906 178.46875 227.410156 C 177.578125 228.414062 176.648438 228.992188 176.425781 229.125 C 176.230469 229.292969 175.382812 229.988281 174.144531 230.507812 C 172.71875 231.105469 171.292969 231.253906 169.960938 230.949219 C 170.441406 232.019531 171.085938 233.667969 171.199219 235.066406 C 171.308594 236.40625 171.949219 237.472656 172.910156 237.917969 C 173.925781 238.390625 175.21875 238.125 176.550781 237.171875 L 184 231.835938 C 185.332031 230.882812 186 229.742188 185.882812 228.628906 C 185.769531 227.574219 184.964844 226.625 183.730469 226.09375 C 182.445312 225.535156 181.089844 224.394531 180.234375 223.59375 Z M 180.234375 223.59375 " fill-opacity="1" fill-rule="nonzero"/></g></g></g><g clip-path="url(#827705c53a)"><g clip-path="url(#d95f9e2902)"><g clip-path="url(#768ae2aa55)"><path fill="#435334" d="M 185.144531 232.230469 C 184.972656 232.378906 184.789062 232.523438 184.59375 232.664062 L 177.144531 237.996094 C 176.949219 238.136719 176.753906 238.265625 176.558594 238.378906 C 177.214844 239.578125 178.070312 241.253906 178.8125 243.109375 C 179.671875 245.25 180.195312 247.167969 180.378906 248.824219 L 193.800781 239.214844 C 192.289062 238.507812 190.640625 237.390625 188.886719 235.882812 C 187.375 234.585938 186.0625 233.238281 185.144531 232.230469 Z M 184.425781 240.296875 C 184.195312 240.460938 183.878906 240.40625 183.714844 240.179688 C 183.550781 239.949219 183.605469 239.632812 183.832031 239.46875 C 184.0625 239.304688 184.378906 239.359375 184.542969 239.585938 C 184.707031 239.816406 184.652344 240.132812 184.425781 240.296875 Z M 184.425781 240.296875 " fill-opacity="1" fill-rule="nonzero"/></g></g></g><g clip-path="url(#166b7bbbf5)"><g clip-path="url(#e20b3ae6a5)"><g clip-path="url(#eba9ae2814)"><path fill="#435334" d="M 167.644531 229.101562 C 167.4375 229.246094 167.160156 229.46875 166.867188 229.789062 C 166.074219 230.652344 165.558594 231.777344 165.335938 233.125 C 164.875 235.921875 164.898438 237.179688 164.917969 237.53125 L 168.089844 241.960938 L 170.175781 235.054688 C 169.988281 233.152344 168.6875 230.636719 168.539062 230.347656 Z M 167.644531 229.101562 " fill-opacity="1" fill-rule="nonzero"/></g></g></g><g clip-path="url(#9cada087a2)"><g clip-path="url(#0d9f4cf5c7)"><g clip-path="url(#c78fc0b60f)"><path fill="#435334" d="M 173.722656 229.578125 C 174.960938 229.066406 175.78125 228.339844 175.789062 228.332031 C 175.816406 228.308594 175.847656 228.285156 175.878906 228.265625 C 175.890625 228.261719 176.839844 227.71875 177.726562 226.710938 C 178.84375 225.441406 179.351562 224.042969 179.234375 222.558594 L 178.367188 221.347656 C 175.929688 222.207031 173.488281 220.15625 172.625 219.324219 L 168.371094 222.371094 C 168.882812 223.457031 170.035156 226.425781 168.4375 228.457031 L 169.300781 229.667969 C 170.671875 230.257812 172.160156 230.230469 173.722656 229.578125 Z M 173.722656 229.578125 " fill-opacity="1" fill-rule="nonzero"/></g></g></g><g clip-path="url(#833bc66062)"><g clip-path="url(#ccccad382f)"><g clip-path="url(#e19fdcec01)"><path fill="#435334" d="M 194.527344 229.929688 L 191.804688 231.882812 L 192.074219 230.253906 C 192.121094 229.976562 191.933594 229.714844 191.65625 229.667969 C 191.378906 229.625 191.117188 229.8125 191.070312 230.089844 L 190.480469 233.636719 C 190.4375 233.914062 190.625 234.179688 190.902344 234.222656 L 194.453125 234.8125 C 194.589844 234.835938 194.726562 234.796875 194.832031 234.722656 C 194.9375 234.648438 195.011719 234.53125 195.035156 234.390625 C 195.082031 234.113281 194.894531 233.851562 194.617188 233.808594 L 192.988281 233.539062 L 195.714844 231.585938 Z M 194.527344 229.929688 " fill-opacity="1" fill-rule="nonzero"/></g></g></g><g clip-path="url(#9fc81128b9)"><g clip-path="url(#dfc7b30685)"><g clip-path="url(#83bfc20596)"><path fill="#435334" d="M 176.171875 243.886719 L 172.621094 243.300781 C 172.34375 243.253906 172.082031 243.441406 172.035156 243.71875 C 171.988281 243.996094 172.175781 244.257812 172.453125 244.304688 L 174.082031 244.574219 L 171.359375 246.523438 L 172.542969 248.179688 L 175.269531 246.226562 L 175 247.855469 C 174.953125 248.132812 175.140625 248.394531 175.417969 248.441406 C 175.554688 248.464844 175.691406 248.429688 175.796875 248.351562 C 175.902344 248.277344 175.980469 248.160156 176.003906 248.023438 L 176.589844 244.472656 C 176.636719 244.195312 176.449219 243.933594 176.171875 243.886719 Z M 176.171875 243.886719 " fill-opacity="1" fill-rule="nonzero"/></g></g></g><g fill="#435334" fill-opacity="1"><g transform="translate(154.914099, 224.002724)"><g><path d="M 6.625 -4.796875 C 6.394531 -4.628906 6.1875 -4.546875 6 -4.546875 C 5.8125 -4.554688 5.671875 -4.628906 5.578125 -4.765625 C 5.472656 -4.898438 5.460938 -5.066406 5.546875 -5.265625 C 5.640625 -5.460938 5.804688 -5.632812 6.046875 -5.78125 C 6.617188 -6.125 7.03125 -6.382812 7.28125 -6.5625 C 7.957031 -7.050781 8.425781 -7.546875 8.6875 -8.046875 C 8.945312 -8.554688 8.953125 -9.128906 8.703125 -9.765625 C 8.328125 -10.734375 6.207031 -13.914062 2.34375 -19.3125 L -0.1875 -22.90625 C -0.695312 -23.675781 -1.457031 -24.765625 -2.46875 -26.171875 C -3.40625 -27.492188 -4.179688 -28.503906 -4.796875 -29.203125 C -5.222656 -29.660156 -5.726562 -29.679688 -6.3125 -29.265625 L -7.703125 -28.265625 C -9.066406 -27.285156 -9.988281 -26.5625 -10.46875 -26.09375 C -10.957031 -25.625 -11.332031 -25.039062 -11.59375 -24.34375 C -12.28125 -22.570312 -11.816406 -20.5625 -10.203125 -18.3125 C -10.003906 -18.039062 -9.914062 -17.773438 -9.9375 -17.515625 C -9.96875 -17.253906 -10.070312 -17.054688 -10.25 -16.921875 C -10.414062 -16.804688 -10.601562 -16.785156 -10.8125 -16.859375 C -11.019531 -16.929688 -11.210938 -17.097656 -11.390625 -17.359375 C -11.992188 -18.191406 -13.097656 -19.984375 -14.703125 -22.734375 C -15.191406 -23.628906 -15.171875 -24.265625 -14.640625 -24.640625 L -4.78125 -31.765625 L 5.15625 -38.8125 C 5.6875 -39.195312 6.289062 -39.007812 6.96875 -38.25 C 9.050781 -35.851562 10.394531 -34.238281 11 -33.40625 C 11.175781 -33.144531 11.269531 -32.90625 11.28125 -32.6875 C 11.289062 -32.46875 11.210938 -32.300781 11.046875 -32.1875 C 10.867188 -32.0625 10.648438 -32.023438 10.390625 -32.078125 C 10.140625 -32.140625 9.914062 -32.304688 9.71875 -32.578125 C 8.101562 -34.828125 6.347656 -35.910156 4.453125 -35.828125 C 3.710938 -35.816406 3.054688 -35.664062 2.484375 -35.375 C 1.910156 -35.09375 0.960938 -34.476562 -0.359375 -33.53125 L -1.765625 -32.53125 C -2.359375 -32.101562 -2.484375 -31.613281 -2.140625 -31.0625 C -1.191406 -29.445312 1.097656 -26.101562 4.734375 -21.03125 C 8.597656 -15.632812 10.925781 -12.597656 11.71875 -11.921875 C 12.238281 -11.484375 12.78125 -11.300781 13.34375 -11.375 C 13.90625 -11.457031 14.523438 -11.742188 15.203125 -12.234375 C 15.453125 -12.410156 15.832031 -12.71875 16.34375 -13.15625 L 16.484375 -13.25 C 16.691406 -13.394531 16.882812 -13.460938 17.0625 -13.453125 C 17.25 -13.453125 17.390625 -13.382812 17.484375 -13.25 C 17.566406 -13.132812 17.578125 -12.984375 17.515625 -12.796875 C 17.453125 -12.617188 17.304688 -12.445312 17.078125 -12.28125 L 11.84375 -8.53125 Z M 6.625 -4.796875 "/></g></g></g><path fill="#435334" d="M 146.804688 240.625 L 146.804688 276.96875 L 183.148438 276.96875 Z M 146.804688 240.625 " fill-opacity="1" fill-rule="nonzero"/><g clip-path="url(#ec2d143b1e)"><path fill="#435334" d="M 183.148438 277.804688 L 146.804688 277.804688 C 146.207031 277.804688 145.851562 277.445312 145.851562 276.96875 L 145.851562 240.625 C 145.851562 240.269531 146.089844 239.910156 146.445312 239.792969 C 146.683594 239.554688 147.160156 239.671875 147.402344 239.910156 L 183.742188 276.253906 C 183.980469 276.492188 184.101562 276.847656 183.980469 277.207031 C 183.742188 277.566406 183.503906 277.804688 183.148438 277.804688 Z M 147.640625 276.015625 L 180.882812 276.015625 L 147.640625 242.769531 Z M 147.640625 276.015625 " fill-opacity="1" fill-rule="nonzero"/></g><path fill="#435334" d="M 248.183594 158.945312 L 248.183594 122.601562 L 211.839844 122.601562 Z M 248.183594 158.945312 " fill-opacity="1" fill-rule="nonzero"/><g clip-path="url(#8b81fc92ea)"><path fill="#435334" d="M 211.839844 121.765625 L 248.183594 121.765625 C 248.78125 121.765625 249.136719 122.125 249.136719 122.601562 L 249.136719 158.945312 C 249.136719 159.300781 248.898438 159.660156 248.542969 159.777344 C 248.304688 160.015625 247.824219 159.898438 247.585938 159.660156 L 211.246094 123.316406 C 211.007812 123.078125 210.886719 122.71875 211.007812 122.363281 C 211.246094 122.003906 211.484375 121.765625 211.839844 121.765625 Z M 247.347656 123.554688 L 214.105469 123.554688 L 247.347656 156.800781 Z M 247.347656 123.554688 " fill-opacity="1" fill-rule="nonzero"/></g></svg>